<svg xmlns="http://www.w3.org/2000/svg" width="600" height="300">

  <g onclick="location='https://example.com'">
    <rect x="20" y="20" width="170" height="30" fill="green"/>
    <text x="105" y="40" text-anchor="middle" fill="white">location=</text>
  </g>

  <g onclick="location.href='https://example.com'">
    <rect x="20" y="60" width="170" height="30" fill="green"/>
    <text x="105" y="80" text-anchor="middle" fill="white">location.href</text>
  </g>

  <g onclick="location.assign('https://example.com')">
    <rect x="20" y="100" width="170" height="30" fill="green"/>
    <text x="105" y="120" text-anchor="middle" fill="white">assign()</text>
  </g>

  <g onclick="location.replace('https://example.com')">
    <rect x="20" y="140" width="170" height="30" fill="green"/>
    <text x="105" y="160" text-anchor="middle" fill="white">replace()</text>
  </g>

  <g onclick="window.location='https://example.com'">
    <rect x="220" y="20" width="170" height="30" fill="blue"/>
    <text x="305" y="40" text-anchor="middle" fill="white">window.location</text>
  </g>

  <g onclick="window.location.href='https://example.com'">
    <rect x="220" y="60" width="170" height="30" fill="blue"/>
    <text x="305" y="80" text-anchor="middle" fill="white">window.location.href</text>
  </g>

  <g onclick="window.open('https://example.com')">
    <rect x="220" y="100" width="170" height="30" fill="blue"/>
    <text x="305" y="120" text-anchor="middle" fill="white">open()</text>
  </g>

  <g onclick="window.open('https://example.com','_blank')">
    <rect x="220" y="140" width="170" height="30" fill="blue"/>
    <text x="305" y="160" text-anchor="middle" fill="white">open(_blank)</text>
  </g>

  <g onclick="parent.location='https://example.com'">
    <rect x="420" y="20" width="170" height="30" fill="orange"/>
    <text x="505" y="40" text-anchor="middle" fill="white">parent.location</text>
  </g>

  <g onclick="top.location='https://example.com'">
    <rect x="420" y="60" width="170" height="30" fill="orange"/>
    <text x="505" y="80" text-anchor="middle" fill="white">top.location</text>
  </g>

</svg>
